<svg width="901" height="901" viewBox="0 0 901 901" fill="none" xmlns="http://www.w3.org/2000/svg">
<g opacity="0.45">
<path d="M450.5 901C439.754 901 429.279 898.96 419.365 894.939C409.099 890.777 399.888 884.661 391.993 876.761L24.2343 509.011C16.3348 501.112 10.2183 491.905 6.0564 481.639C2.0402 471.721 -4.03234e-05 461.246 -3.9384e-05 450.5C-3.84446e-05 439.754 2.04021 429.279 6.06069 419.365C10.2226 409.099 16.3391 399.888 24.2386 391.993L391.989 24.2344C399.888 16.3349 409.095 10.2184 419.361 6.05648C429.279 2.04028 439.754 3.84446e-05 450.5 3.9384e-05C461.246 4.03234e-05 471.721 2.04029 481.635 6.06077C491.901 10.2227 501.112 16.3392 509.007 24.2387L876.761 391.993C884.661 399.893 890.777 409.099 894.939 419.365C898.96 429.279 901 439.755 901 450.5C901 461.246 898.96 471.721 894.939 481.635C890.777 491.901 884.661 501.112 876.761 509.007L509.007 876.761C501.107 884.661 491.901 890.777 481.635 894.939C471.721 898.96 461.246 901 450.5 901ZM450.5 2.30603C429.892 2.30603 409.284 10.1498 393.592 25.8417L25.8374 393.592C-5.54213 424.971 -5.54214 476.029 25.8374 507.408L393.592 875.163C424.971 906.542 476.029 906.542 507.408 875.163L875.163 507.408C906.542 476.029 906.542 424.971 875.163 393.592L507.408 25.8374C491.721 10.1498 471.108 2.30175 450.5 2.30175L450.5 2.30603Z" fill="url(#paint0_linear_1383_164)"/>
<path d="M450.5 892.41C440.093 892.41 429.948 890.434 420.347 886.542C410.407 882.509 401.487 876.59 393.836 868.939L32.0612 507.168C24.4103 499.517 18.4867 490.598 14.4577 480.658C10.5658 471.057 8.5898 460.911 8.58981 450.504C8.58981 440.097 10.5658 429.952 14.4577 420.351C18.491 410.411 24.4103 401.491 32.0612 393.84L393.836 32.0609C401.487 24.41 410.407 18.4907 420.347 14.4574C429.948 10.5655 440.093 8.58952 450.5 8.58952C460.907 8.58952 471.053 10.5655 480.654 14.4574C490.594 18.4907 499.513 24.41 507.164 32.0609L868.935 393.832C876.586 401.483 882.509 410.402 886.539 420.342C890.43 429.943 892.406 440.089 892.406 450.496C892.406 460.903 890.43 471.048 886.539 480.649C882.505 490.589 876.586 499.509 868.935 507.16L507.164 868.93C499.513 876.581 490.594 882.505 480.654 886.534C471.053 890.426 460.907 892.402 450.5 892.402L450.5 892.41ZM33.6643 395.439C3.3006 425.803 3.3006 475.206 33.6643 505.565L395.435 867.336C410.141 882.042 429.699 890.143 450.5 890.143C471.301 890.143 490.855 882.042 505.565 867.336L867.336 505.565C882.042 490.859 890.143 471.301 890.143 450.5C890.143 429.699 882.042 410.145 867.336 395.435L505.565 33.664C490.859 18.9579 471.301 10.8569 450.5 10.8569C429.699 10.8569 410.145 18.9579 395.435 33.664L33.6643 395.439Z" fill="url(#paint1_linear_1383_164)"/>
<path d="M450.499 883.821C429.788 883.821 410.32 875.758 395.679 861.112L39.8871 505.325C25.2454 490.683 17.1787 471.211 17.1787 450.504C17.1787 429.793 25.2411 410.325 39.8871 395.683L395.679 39.8877C410.32 25.2459 429.793 17.1792 450.499 17.1792C471.206 17.1792 490.679 25.2459 505.32 39.8877L861.107 395.675C875.749 410.317 883.816 429.789 883.816 450.496C883.816 471.207 875.754 490.675 861.107 505.317L505.32 861.104C490.679 875.746 471.206 883.812 450.499 883.812L450.499 883.821ZM450.499 19.4852C431.224 19.4852 411.953 26.8233 397.282 41.495L41.4902 397.282C27.2728 411.5 19.4461 430.398 19.4461 450.5C19.4461 470.602 27.2727 489.505 41.4902 503.718L397.277 859.505C411.495 873.722 430.393 881.549 450.495 881.549C470.598 881.549 489.5 873.722 503.713 859.505L859.5 503.718C873.718 489.5 881.544 470.602 881.544 450.5C881.544 430.398 873.718 411.495 859.5 397.282L503.717 41.4907C489.046 26.819 469.77 19.4809 450.499 19.4809L450.499 19.4852Z" fill="url(#paint2_linear_1383_164)"/>
<path d="M450.501 875.231C430.488 875.231 411.672 867.439 397.523 853.286L47.715 503.478C33.5619 489.325 25.7695 470.512 25.7695 450.5C25.7695 430.488 33.5619 411.671 47.715 397.522L397.523 47.7186C411.676 33.5655 430.488 25.7731 450.501 25.7731C470.513 25.7731 489.33 33.5655 503.479 47.7186L853.282 397.522C867.435 411.675 875.228 430.488 875.228 450.5C875.228 470.512 867.435 489.329 853.282 503.478L503.478 853.281C489.325 867.435 470.513 875.227 450.501 875.227L450.501 875.231ZM49.3181 399.125C20.9903 427.453 20.9903 473.547 49.318 501.875L399.126 851.683C412.85 865.407 431.093 872.964 450.501 872.964C469.909 872.964 488.155 865.407 501.875 851.683L851.683 501.875C865.408 488.15 872.965 469.908 872.965 450.5C872.965 431.092 865.408 412.846 851.683 399.125L501.876 49.3174C488.151 35.5929 469.909 28.0362 450.501 28.0362C431.093 28.0362 412.846 35.5929 399.126 49.3174L49.3181 399.125Z" fill="url(#paint3_linear_1383_164)"/>
<path d="M450.5 866.637C431.182 866.637 413.025 859.115 399.365 845.459L55.5409 501.635C41.8807 487.974 34.3584 469.818 34.3584 450.5C34.3584 431.182 41.8807 413.025 55.5409 399.365L399.365 55.5451C413.025 41.8849 431.182 34.3626 450.5 34.3626C469.818 34.3626 487.974 41.8849 501.635 55.5451L845.459 399.369C859.119 413.03 866.642 431.186 866.642 450.504C866.642 469.822 859.119 487.979 845.459 501.639L501.635 845.463C487.974 859.123 469.818 866.641 450.5 866.641L450.5 866.637ZM450.5 36.6643C432.562 36.6643 414.624 43.4923 400.968 57.1482L57.144 400.968C43.9124 414.2 36.6258 431.79 36.6258 450.5C36.6258 469.209 43.9124 486.8 57.144 500.031L400.968 843.856C414.624 857.512 432.562 864.34 450.5 864.34C468.438 864.34 486.376 857.512 500.032 843.856L843.856 500.032C857.087 486.8 864.374 469.209 864.374 450.5C864.374 431.791 857.087 414.2 843.856 400.968L500.032 57.1482C486.376 43.4923 468.438 36.6643 450.5 36.6643Z" fill="url(#paint4_linear_1383_164)"/>
<path d="M450.5 858.048C431.881 858.048 414.376 850.795 401.209 837.632L63.3723 499.792C50.205 486.624 42.957 469.119 42.957 450.5C42.957 431.881 50.2093 414.376 63.3723 401.208L401.209 63.3719C414.376 50.2046 431.881 42.9566 450.5 42.9566C469.12 42.9566 486.625 50.2089 499.792 63.3719L837.633 401.213C850.8 414.38 858.048 431.885 858.048 450.504C858.048 469.124 850.796 486.629 837.633 499.796L499.792 837.637C486.625 850.804 469.12 858.052 450.5 858.052L450.5 858.048ZM450.5 45.254C433.231 45.254 415.962 51.8291 402.812 64.9749L64.9754 402.811C52.2367 415.55 45.2244 432.485 45.2244 450.5C45.2244 468.515 52.241 485.45 64.9754 498.189L402.816 836.029C429.112 862.325 471.897 862.325 498.193 836.029L836.034 498.189C862.33 471.893 862.33 429.107 836.034 402.816L498.189 64.9749C485.043 51.8291 467.77 45.254 450.5 45.254Z" fill="url(#paint5_linear_1383_164)"/>
<path d="M450.5 849.458C432.575 849.458 415.725 842.48 403.051 829.805L71.1982 497.948C58.5238 485.274 51.5459 468.425 51.5459 450.504C51.5459 432.583 58.5239 415.73 71.1982 403.055L403.055 71.1984C415.73 58.524 432.579 51.5461 450.5 51.5461C468.425 51.5461 485.274 58.524 497.944 71.1984L829.801 403.056C842.476 415.73 849.453 432.579 849.453 450.504C849.453 468.429 842.475 485.278 829.801 497.948L497.944 829.805C485.27 842.48 468.42 849.458 450.5 849.458ZM72.8013 404.659C47.5254 429.939 47.5254 471.069 72.8013 496.345L404.658 828.202C429.939 853.483 471.069 853.478 496.345 828.202L828.202 496.345C840.448 484.1 847.19 467.821 847.19 450.5C847.19 433.183 840.448 416.9 828.202 404.654L496.345 72.8015C484.099 60.5557 467.82 53.8135 450.5 53.8135C433.183 53.8135 416.9 60.5557 404.654 72.8015L72.8013 404.659Z" fill="url(#paint6_linear_1383_164)"/>
<path d="M450.5 840.868C433.273 840.868 417.08 834.16 404.899 821.979L79.0251 496.105C66.8437 483.924 60.1357 467.731 60.1357 450.504C60.1357 433.278 66.8437 417.084 79.0251 404.903L404.899 79.0252C417.08 66.8437 433.274 60.1358 450.5 60.1358C467.726 60.1358 483.924 66.8437 496.101 79.0252L821.975 404.899C834.156 417.08 840.864 433.274 840.864 450.5C840.864 467.726 834.156 483.92 821.975 496.101L496.101 821.975C483.92 834.156 467.726 840.864 450.5 840.864L450.5 840.868ZM450.5 62.4032C433.878 62.4032 418.255 68.8754 406.502 80.6282L80.6282 406.502C68.8753 418.255 62.4031 433.882 62.4031 450.5C62.4031 467.122 68.8753 482.745 80.6282 494.498L406.502 820.372C418.255 832.124 433.882 838.597 450.5 838.597C467.122 838.597 482.745 832.124 494.498 820.372L820.372 494.498C844.632 470.238 844.632 430.762 820.372 406.498L494.498 80.6282C482.745 68.8754 467.118 62.4032 450.5 62.4032Z" fill="url(#paint7_linear_1383_164)"/>
<path d="M450.501 832.274C433.969 832.274 418.432 825.837 406.743 814.148L86.853 494.258C75.1644 482.569 68.7265 467.028 68.7265 450.5C68.7265 433.968 75.1645 418.43 86.853 406.742L406.743 86.8517C418.432 75.1632 433.973 68.7253 450.501 68.7253C467.029 68.7253 482.571 75.1632 494.259 86.8517L814.149 406.742C825.838 418.43 832.276 433.972 832.276 450.5C832.276 467.028 825.838 482.569 814.149 494.258L494.259 814.148C482.571 825.837 467.029 832.274 450.501 832.274ZM88.4561 408.345C65.2118 431.589 65.2118 469.411 88.456 492.655L408.346 812.545C419.606 823.805 434.578 830.007 450.501 830.007C466.424 830.007 481.396 823.805 492.656 812.545L812.546 492.655C823.806 481.395 830.008 466.423 830.008 450.5C830.008 434.577 823.806 419.605 812.546 408.345L492.656 88.4548C481.396 77.1948 466.425 70.9927 450.501 70.9927C434.578 70.9927 419.606 77.1948 408.346 88.4548L88.4561 408.345Z" fill="url(#paint8_linear_1383_164)"/>
<path d="M450.5 823.685C434.667 823.685 419.781 817.521 408.585 806.326L94.6789 492.415C83.4833 481.219 77.3154 466.333 77.3154 450.5C77.3154 434.667 83.4833 419.78 94.6789 408.585L408.585 94.6785C419.781 83.4829 434.667 77.315 450.5 77.315C466.334 77.315 481.22 83.4829 492.415 94.6785L806.322 408.585C817.517 419.781 823.685 434.667 823.685 450.5C823.685 466.333 817.522 481.219 806.322 492.415L492.415 806.321C481.22 817.517 466.334 823.681 450.5 823.681L450.5 823.685ZM450.5 79.5824C435.271 79.5824 420.955 85.5145 410.188 96.2815L96.282 410.188C85.515 420.955 79.5828 435.271 79.5828 450.5C79.5828 465.729 85.5107 480.045 96.282 490.812L410.188 804.718C420.955 815.485 435.271 821.417 450.5 821.417C465.729 821.417 480.045 815.49 490.812 804.718L804.719 490.812C826.947 468.584 826.947 432.416 804.719 410.188L490.812 96.2815C480.045 85.5145 465.729 79.5824 450.5 79.5824Z" fill="url(#paint9_linear_1383_164)"/>
<path d="M450.5 815.095C435.366 815.095 421.131 809.202 410.428 798.499L102.505 490.572C91.8027 479.869 85.9091 465.639 85.9091 450.5C85.9091 435.365 91.8027 421.131 102.505 410.428L410.428 102.505C421.131 91.8025 435.361 85.909 450.5 85.909C465.635 85.909 479.87 91.8025 490.572 102.505L798.499 410.432C809.202 421.135 815.096 435.365 815.096 450.504C815.096 465.639 809.202 479.874 798.499 490.576L490.572 798.503C479.869 809.206 465.639 815.1 450.5 815.1L450.5 815.095ZM104.108 412.031C82.8959 433.244 82.8959 467.756 104.108 488.965L412.036 796.892C422.31 807.166 435.974 812.824 450.505 812.824C465.035 812.824 478.695 807.166 488.973 796.892L796.901 488.965C818.113 467.752 818.113 433.239 796.901 412.031L488.969 104.108C467.757 82.8958 433.244 82.8957 412.036 104.108L104.108 412.031Z" fill="url(#paint10_linear_1383_164)"/>
<path d="M450.5 806.506C436.06 806.506 422.486 800.882 412.276 790.672L110.332 488.729C100.123 478.519 94.499 464.944 94.499 450.504C94.499 436.064 100.123 422.489 110.332 412.28L412.276 110.332C422.486 100.122 436.064 94.4984 450.505 94.4984C464.945 94.4984 478.52 100.122 488.729 110.332L790.673 412.275C800.883 422.485 806.506 436.06 806.506 450.5C806.506 464.94 800.883 478.515 790.673 488.725L488.729 790.668C478.52 800.878 464.945 806.501 450.505 806.501L450.5 806.506ZM111.935 413.878C91.7429 434.071 91.7429 466.933 111.935 487.126L413.879 789.069C423.973 799.163 437.243 804.213 450.505 804.217C463.771 804.217 477.028 799.168 487.126 789.069L789.07 487.126C798.851 477.345 804.239 464.336 804.239 450.504C804.239 436.673 798.851 423.664 789.07 413.883L487.126 111.939C466.934 91.7467 434.076 91.7467 413.879 111.939L111.935 413.878Z" fill="url(#paint11_linear_1383_164)"/>
<path d="M450.5 797.912C436.758 797.912 423.835 792.558 414.118 782.842L118.158 486.882C108.441 477.165 103.088 464.242 103.088 450.5C103.088 436.758 108.441 423.835 118.158 414.118L414.118 118.159C423.835 108.442 436.758 103.088 450.5 103.088C464.241 103.088 477.164 108.442 486.881 118.159L782.841 414.119C792.558 423.835 797.912 436.758 797.912 450.5C797.912 464.242 792.558 477.165 782.841 486.882L486.881 782.842C477.164 792.558 464.241 797.912 450.5 797.912ZM119.761 415.722C100.585 434.898 100.585 466.102 119.761 485.283L415.721 781.243C425.01 790.531 437.362 795.649 450.5 795.649C463.637 795.649 475.99 790.531 485.278 781.243L781.238 485.283C800.415 466.106 800.415 434.902 781.238 415.722L485.278 119.762C475.99 110.473 463.637 105.356 450.5 105.356C437.362 105.356 425.01 110.473 415.721 119.762L119.761 415.722Z" fill="url(#paint12_linear_1383_164)"/>
<path d="M450.5 789.322C437.453 789.322 425.185 784.243 415.962 775.015L125.985 485.038C116.761 475.814 111.678 463.547 111.678 450.5C111.678 437.453 116.757 425.185 125.985 415.961L415.962 125.985C425.186 116.761 437.453 111.678 450.5 111.678C463.547 111.678 475.814 116.757 485.038 125.985L775.015 415.961C784.239 425.185 789.322 437.453 789.322 450.5C789.322 463.547 784.243 475.814 775.015 485.038L485.038 775.015C475.814 784.239 463.547 789.322 450.5 789.322ZM127.588 417.564C118.793 426.36 113.945 438.057 113.945 450.5C113.945 462.943 118.789 474.64 127.588 483.435L417.565 773.412C426.364 782.207 438.057 787.055 450.5 787.055C462.943 787.055 474.64 782.211 483.435 773.412L773.412 483.435C782.207 474.636 787.055 462.943 787.055 450.5C787.055 438.057 782.211 426.36 773.412 417.565L483.435 127.588C474.636 118.793 462.943 113.945 450.5 113.945C438.057 113.945 426.36 118.789 417.565 127.588L127.588 417.564Z" fill="url(#paint13_linear_1383_164)"/>
<path d="M450.5 780.711C438.662 780.711 426.819 776.202 417.805 767.192L133.812 483.2C125.077 474.469 120.268 462.857 120.268 450.504C120.268 438.156 125.077 426.544 133.812 417.809L417.805 133.812C426.536 125.081 438.147 120.267 450.5 120.267C462.853 120.267 474.46 125.077 483.196 133.812L767.188 417.805C785.216 435.833 785.216 465.168 767.188 483.195L483.196 767.188C474.182 776.202 462.343 780.707 450.5 780.707L450.5 780.711ZM450.5 122.535C438.756 122.535 427.715 127.108 419.408 135.415L135.415 419.408C127.108 427.714 122.535 438.756 122.535 450.5C122.535 462.244 127.108 473.286 135.415 481.592L419.408 765.585C436.553 782.73 464.448 782.73 481.592 765.585L765.585 481.592C782.73 464.447 782.73 436.553 765.585 419.408L481.593 135.415C473.286 127.108 462.245 122.535 450.5 122.535Z" fill="url(#paint14_linear_1383_164)"/>
<path d="M450.5 772.122C439.326 772.122 428.156 767.87 419.648 759.361L141.639 481.352C124.627 464.34 124.627 436.664 141.639 419.652L419.652 141.638C436.664 124.626 464.341 124.626 481.353 141.638L759.362 419.648C767.604 427.89 772.139 438.846 772.139 450.5C772.139 462.154 767.6 473.11 759.362 481.352L481.353 759.361C472.849 767.865 461.675 772.122 450.5 772.122ZM143.242 421.255C127.113 437.384 127.113 463.624 143.242 479.749L421.251 757.758C437.38 773.883 463.621 773.888 479.745 757.758L757.755 479.749C773.884 463.62 773.884 437.38 757.755 421.255L479.745 143.246C463.616 127.117 437.376 127.117 421.251 143.246L143.242 421.255Z" fill="url(#paint15_linear_1383_164)"/>
<path d="M450.501 763.549C439.545 763.549 429.241 759.28 421.496 751.535L149.466 479.505C133.47 463.509 133.47 437.487 149.466 421.491L421.496 149.465C429.245 141.716 439.545 137.451 450.501 137.451C461.456 137.451 471.76 141.716 479.506 149.465L751.536 421.495C767.532 437.491 767.532 463.513 751.536 479.509L479.506 751.539C471.756 759.289 461.456 763.553 450.501 763.553L450.501 763.549ZM151.069 423.098C135.96 438.207 135.96 462.797 151.069 477.906L423.099 749.936C438.208 765.045 462.798 765.045 477.907 749.936L749.937 477.906C765.046 462.797 765.046 438.207 749.937 423.098L477.907 151.068C462.798 135.959 438.212 135.959 423.099 151.068L151.069 423.098Z" fill="url(#paint16_linear_1383_164)"/>
<path d="M450.5 754.96C440.238 754.96 430.594 750.965 423.338 743.708L157.291 477.662C150.035 470.405 146.04 460.761 146.04 450.5C146.04 440.239 150.035 430.59 157.291 423.338L423.338 157.292C438.314 142.316 462.685 142.316 477.661 157.292L743.708 423.338C750.964 430.595 754.959 440.239 754.959 450.5C754.959 460.761 750.964 470.405 743.708 477.662L477.661 743.708C470.405 750.965 460.761 754.96 450.5 754.96ZM450.5 148.308C440.843 148.308 431.769 152.067 424.941 158.895L158.894 424.941C152.066 431.769 148.307 440.847 148.307 450.5C148.307 460.157 152.066 469.231 158.894 476.059L424.941 742.105C439.034 756.198 461.965 756.198 476.058 742.105L742.105 476.059C756.198 461.966 756.198 439.034 742.105 424.941L476.058 158.895C469.23 152.067 460.152 148.308 450.5 148.308Z" fill="url(#paint17_linear_1383_164)"/>
<path d="M450.501 746.353C441.333 746.353 432.164 742.864 425.182 735.881L165.119 475.819C158.356 469.055 154.631 460.063 154.631 450.5C154.631 440.937 158.356 431.945 165.119 425.181L425.182 165.118C439.142 151.158 461.859 151.158 475.82 165.118L735.882 425.181C742.646 431.945 746.371 440.937 746.371 450.5C746.371 460.063 742.646 469.055 735.882 475.819L475.82 735.881C468.837 742.864 459.669 746.353 450.501 746.353ZM450.501 156.897C441.543 156.897 433.12 160.386 426.785 166.721L166.722 426.784C160.387 433.119 156.898 441.542 156.898 450.5C156.898 459.458 160.387 467.881 166.722 474.216L426.785 734.278C433.12 740.613 441.543 744.102 450.501 744.102C459.459 744.102 467.881 740.613 474.216 734.278L734.279 474.216C740.614 467.881 744.103 459.458 744.103 450.5C744.103 441.542 740.614 433.119 734.279 426.784L474.217 166.721C467.881 160.386 459.459 156.897 450.501 156.897Z" fill="url(#paint18_linear_1383_164)"/>
<path d="M450.499 737.763C442 737.763 433.496 734.527 427.024 728.055L172.945 473.976C160 461.031 160 439.969 172.945 427.024L427.024 172.945C439.968 160.001 461.031 160.001 473.975 172.945L728.054 427.024C740.999 439.969 740.999 461.031 728.054 473.976L473.975 728.055C467.503 734.527 459.003 737.763 450.499 737.763ZM450.5 165.504C442.579 165.504 434.658 168.517 428.627 174.548L174.548 428.627C168.706 434.469 165.487 442.236 165.487 450.5C165.487 458.764 168.706 466.53 174.548 472.372L428.627 726.452C434.469 732.294 442.236 735.513 450.499 735.513C458.763 735.513 466.53 732.294 472.372 726.452L726.451 472.373C732.293 466.53 735.512 458.764 735.512 450.5C735.512 442.236 732.293 434.469 726.451 428.627L472.372 174.548C466.341 168.517 458.42 165.504 450.5 165.504Z" fill="url(#paint19_linear_1383_164)"/>
<path d="M450.501 729.174C442.666 729.174 434.835 726.19 428.868 720.228L180.773 472.133C174.995 466.355 171.814 458.674 171.814 450.5C171.814 442.33 174.995 434.645 180.773 428.867L428.873 180.772C440.801 168.843 460.209 168.843 472.134 180.772L720.229 428.867C732.158 440.796 732.158 460.2 720.229 472.128L472.133 720.224C466.171 726.186 458.336 729.169 450.501 729.169L450.501 729.174ZM450.501 174.094C443.249 174.094 435.996 176.854 430.471 182.375L182.376 430.475C177.026 435.824 174.082 442.939 174.082 450.504C174.082 458.069 177.026 465.18 182.376 470.534L430.471 718.63C441.517 729.675 459.485 729.671 470.526 718.63L718.622 470.534C729.663 459.488 729.663 441.52 718.622 430.479L470.526 182.383C465.006 176.863 457.753 174.102 450.497 174.102L450.501 174.094Z" fill="url(#paint20_linear_1383_164)"/>
<path d="M450.501 720.597C443.025 720.597 436 717.686 430.715 712.402L188.603 470.289C177.695 459.381 177.695 441.627 188.603 430.715L430.715 188.598C436 183.313 443.025 180.403 450.501 180.403C457.976 180.403 465.001 183.313 470.286 188.598L712.398 430.71C717.683 435.995 720.593 443.025 720.593 450.496C720.593 457.971 717.683 464.996 712.398 470.281L470.286 712.393C465.001 717.678 457.971 720.588 450.501 720.588L450.501 720.597ZM190.202 432.318C180.176 442.343 180.176 458.661 190.202 468.686L432.314 710.798C437.17 715.655 443.63 718.329 450.496 718.329C457.367 718.329 463.822 715.655 468.678 710.798L710.791 468.686C715.647 463.83 718.321 457.371 718.321 450.504C718.321 443.633 715.647 437.178 710.791 432.322L468.678 190.21C463.822 185.354 457.363 182.679 450.496 182.679C443.63 182.679 437.17 185.354 432.314 190.21L190.202 432.318Z" fill="url(#paint21_linear_1383_164)"/>
</g>
<defs>
<linearGradient id="paint0_linear_1383_164" x1="-3.93843e-05" y1="450.504" x2="901.004" y2="450.504" gradientUnits="userSpaceOnUse">
<stop stop-color="#1868AB"/>
<stop offset="0.2" stop-color="#2274C7"/>
<stop offset="0.32" stop-color="#2275C8" stop-opacity="0.99"/>
<stop offset="0.37" stop-color="#227BCF" stop-opacity="0.93"/>
<stop offset="0.4" stop-color="#2285DA" stop-opacity="0.84"/>
<stop offset="0.42" stop-color="#2294EB" stop-opacity="0.7"/>
<stop offset="0.44" stop-color="#23A0F8" stop-opacity="0.6"/>
<stop offset="0.7" stop-color="#23A0F8"/>
<stop offset="0.87" stop-color="#34D6FC"/>
<stop offset="1" stop-color="#34D6FC" stop-opacity="0.5"/>
</linearGradient>
<linearGradient id="paint1_linear_1383_164" x1="8.58981" y1="450.504" x2="892.411" y2="450.504" gradientUnits="userSpaceOnUse">
<stop stop-color="#1868AB"/>
<stop offset="0.2" stop-color="#2274C7"/>
<stop offset="0.32" stop-color="#2275C8" stop-opacity="0.99"/>
<stop offset="0.37" stop-color="#227BCF" stop-opacity="0.93"/>
<stop offset="0.4" stop-color="#2285DA" stop-opacity="0.84"/>
<stop offset="0.42" stop-color="#2294EB" stop-opacity="0.7"/>
<stop offset="0.44" stop-color="#23A0F8" stop-opacity="0.6"/>
<stop offset="0.7" stop-color="#23A0F8"/>
<stop offset="0.87" stop-color="#34D6FC"/>
<stop offset="1" stop-color="#34D6FC" stop-opacity="0.5"/>
</linearGradient>
<linearGradient id="paint2_linear_1383_164" x1="17.183" y1="450.504" x2="883.82" y2="450.504" gradientUnits="userSpaceOnUse">
<stop stop-color="#1868AB"/>
<stop offset="0.2" stop-color="#2274C7"/>
<stop offset="0.32" stop-color="#2275C8" stop-opacity="0.99"/>
<stop offset="0.37" stop-color="#227BCF" stop-opacity="0.93"/>
<stop offset="0.4" stop-color="#2285DA" stop-opacity="0.84"/>
<stop offset="0.42" stop-color="#2294EB" stop-opacity="0.7"/>
<stop offset="0.44" stop-color="#23A0F8" stop-opacity="0.6"/>
<stop offset="0.7" stop-color="#23A0F8"/>
<stop offset="0.87" stop-color="#34D6FC"/>
<stop offset="1" stop-color="#34D6FC" stop-opacity="0.5"/>
</linearGradient>
<linearGradient id="paint3_linear_1383_164" x1="25.7738" y1="450.504" x2="875.232" y2="450.504" gradientUnits="userSpaceOnUse">
<stop stop-color="#1868AB"/>
<stop offset="0.2" stop-color="#2274C7"/>
<stop offset="0.32" stop-color="#2275C8" stop-opacity="0.99"/>
<stop offset="0.37" stop-color="#227BCF" stop-opacity="0.93"/>
<stop offset="0.4" stop-color="#2285DA" stop-opacity="0.84"/>
<stop offset="0.42" stop-color="#2294EB" stop-opacity="0.7"/>
<stop offset="0.44" stop-color="#23A0F8" stop-opacity="0.6"/>
<stop offset="0.7" stop-color="#23A0F8"/>
<stop offset="0.87" stop-color="#34D6FC"/>
<stop offset="1" stop-color="#34D6FC" stop-opacity="0.5"/>
</linearGradient>
<linearGradient id="paint4_linear_1383_164" x1="34.3626" y1="450.504" x2="866.642" y2="450.504" gradientUnits="userSpaceOnUse">
<stop stop-color="#1868AB"/>
<stop offset="0.2" stop-color="#2274C7"/>
<stop offset="0.32" stop-color="#2275C8" stop-opacity="0.99"/>
<stop offset="0.37" stop-color="#227BCF" stop-opacity="0.93"/>
<stop offset="0.4" stop-color="#2285DA" stop-opacity="0.84"/>
<stop offset="0.42" stop-color="#2294EB" stop-opacity="0.7"/>
<stop offset="0.44" stop-color="#23A0F8" stop-opacity="0.6"/>
<stop offset="0.7" stop-color="#23A0F8"/>
<stop offset="0.87" stop-color="#34D6FC"/>
<stop offset="1" stop-color="#34D6FC" stop-opacity="0.5"/>
</linearGradient>
<linearGradient id="paint5_linear_1383_164" x1="42.957" y1="450.504" x2="858.048" y2="450.504" gradientUnits="userSpaceOnUse">
<stop stop-color="#1868AB"/>
<stop offset="0.2" stop-color="#2274C7"/>
<stop offset="0.32" stop-color="#2275C8" stop-opacity="0.99"/>
<stop offset="0.37" stop-color="#227BCF" stop-opacity="0.93"/>
<stop offset="0.4" stop-color="#2285DA" stop-opacity="0.84"/>
<stop offset="0.42" stop-color="#2294EB" stop-opacity="0.7"/>
<stop offset="0.44" stop-color="#23A0F8" stop-opacity="0.6"/>
<stop offset="0.7" stop-color="#23A0F8"/>
<stop offset="0.87" stop-color="#34D6FC"/>
<stop offset="1" stop-color="#34D6FC" stop-opacity="0.5"/>
</linearGradient>
<linearGradient id="paint6_linear_1383_164" x1="51.5459" y1="450.504" x2="849.458" y2="450.504" gradientUnits="userSpaceOnUse">
<stop stop-color="#1868AB"/>
<stop offset="0.2" stop-color="#2274C7"/>
<stop offset="0.32" stop-color="#2275C8" stop-opacity="0.99"/>
<stop offset="0.37" stop-color="#227BCF" stop-opacity="0.93"/>
<stop offset="0.4" stop-color="#2285DA" stop-opacity="0.84"/>
<stop offset="0.42" stop-color="#2294EB" stop-opacity="0.7"/>
<stop offset="0.44" stop-color="#23A0F8" stop-opacity="0.6"/>
<stop offset="0.7" stop-color="#23A0F8"/>
<stop offset="0.87" stop-color="#34D6FC"/>
<stop offset="1" stop-color="#34D6FC" stop-opacity="0.5"/>
</linearGradient>
<linearGradient id="paint7_linear_1383_164" x1="60.1357" y1="450.504" x2="840.868" y2="450.504" gradientUnits="userSpaceOnUse">
<stop stop-color="#1868AB"/>
<stop offset="0.2" stop-color="#2274C7"/>
<stop offset="0.32" stop-color="#2275C8" stop-opacity="0.99"/>
<stop offset="0.37" stop-color="#227BCF" stop-opacity="0.93"/>
<stop offset="0.4" stop-color="#2285DA" stop-opacity="0.84"/>
<stop offset="0.42" stop-color="#2294EB" stop-opacity="0.7"/>
<stop offset="0.44" stop-color="#23A0F8" stop-opacity="0.6"/>
<stop offset="0.7" stop-color="#23A0F8"/>
<stop offset="0.87" stop-color="#34D6FC"/>
<stop offset="1" stop-color="#34D6FC" stop-opacity="0.5"/>
</linearGradient>
<linearGradient id="paint8_linear_1383_164" x1="68.7265" y1="450.504" x2="832.28" y2="450.504" gradientUnits="userSpaceOnUse">
<stop stop-color="#1868AB"/>
<stop offset="0.2" stop-color="#2274C7"/>
<stop offset="0.32" stop-color="#2275C8" stop-opacity="0.99"/>
<stop offset="0.37" stop-color="#227BCF" stop-opacity="0.93"/>
<stop offset="0.4" stop-color="#2285DA" stop-opacity="0.84"/>
<stop offset="0.42" stop-color="#2294EB" stop-opacity="0.7"/>
<stop offset="0.44" stop-color="#23A0F8" stop-opacity="0.6"/>
<stop offset="0.7" stop-color="#23A0F8"/>
<stop offset="0.87" stop-color="#34D6FC"/>
<stop offset="1" stop-color="#34D6FC" stop-opacity="0.5"/>
</linearGradient>
<linearGradient id="paint9_linear_1383_164" x1="77.3154" y1="450.504" x2="823.685" y2="450.504" gradientUnits="userSpaceOnUse">
<stop stop-color="#1868AB"/>
<stop offset="0.2" stop-color="#2274C7"/>
<stop offset="0.32" stop-color="#2275C8" stop-opacity="0.99"/>
<stop offset="0.37" stop-color="#227BCF" stop-opacity="0.93"/>
<stop offset="0.4" stop-color="#2285DA" stop-opacity="0.84"/>
<stop offset="0.42" stop-color="#2294EB" stop-opacity="0.7"/>
<stop offset="0.44" stop-color="#23A0F8" stop-opacity="0.6"/>
<stop offset="0.7" stop-color="#23A0F8"/>
<stop offset="0.87" stop-color="#34D6FC"/>
<stop offset="1" stop-color="#34D6FC" stop-opacity="0.5"/>
</linearGradient>
<linearGradient id="paint10_linear_1383_164" x1="85.9091" y1="450.504" x2="815.096" y2="450.504" gradientUnits="userSpaceOnUse">
<stop stop-color="#1868AB"/>
<stop offset="0.2" stop-color="#2274C7"/>
<stop offset="0.32" stop-color="#2275C8" stop-opacity="0.99"/>
<stop offset="0.37" stop-color="#227BCF" stop-opacity="0.93"/>
<stop offset="0.4" stop-color="#2285DA" stop-opacity="0.84"/>
<stop offset="0.42" stop-color="#2294EB" stop-opacity="0.7"/>
<stop offset="0.44" stop-color="#23A0F8" stop-opacity="0.6"/>
<stop offset="0.7" stop-color="#23A0F8"/>
<stop offset="0.87" stop-color="#34D6FC"/>
<stop offset="1" stop-color="#34D6FC" stop-opacity="0.5"/>
</linearGradient>
<linearGradient id="paint11_linear_1383_164" x1="94.499" y1="450.504" x2="806.506" y2="450.504" gradientUnits="userSpaceOnUse">
<stop stop-color="#1868AB"/>
<stop offset="0.2" stop-color="#2274C7"/>
<stop offset="0.32" stop-color="#2275C8" stop-opacity="0.99"/>
<stop offset="0.37" stop-color="#227BCF" stop-opacity="0.93"/>
<stop offset="0.4" stop-color="#2285DA" stop-opacity="0.84"/>
<stop offset="0.42" stop-color="#2294EB" stop-opacity="0.7"/>
<stop offset="0.44" stop-color="#23A0F8" stop-opacity="0.6"/>
<stop offset="0.7" stop-color="#23A0F8"/>
<stop offset="0.87" stop-color="#34D6FC"/>
<stop offset="1" stop-color="#34D6FC" stop-opacity="0.5"/>
</linearGradient>
<linearGradient id="paint12_linear_1383_164" x1="103.088" y1="450.504" x2="797.916" y2="450.504" gradientUnits="userSpaceOnUse">
<stop stop-color="#1868AB"/>
<stop offset="0.2" stop-color="#2274C7"/>
<stop offset="0.32" stop-color="#2275C8" stop-opacity="0.99"/>
<stop offset="0.37" stop-color="#227BCF" stop-opacity="0.93"/>
<stop offset="0.4" stop-color="#2285DA" stop-opacity="0.84"/>
<stop offset="0.42" stop-color="#2294EB" stop-opacity="0.7"/>
<stop offset="0.44" stop-color="#23A0F8" stop-opacity="0.6"/>
<stop offset="0.7" stop-color="#23A0F8"/>
<stop offset="0.87" stop-color="#34D6FC"/>
<stop offset="1" stop-color="#34D6FC" stop-opacity="0.5"/>
</linearGradient>
<linearGradient id="paint13_linear_1383_164" x1="111.678" y1="450.504" x2="789.322" y2="450.504" gradientUnits="userSpaceOnUse">
<stop stop-color="#1868AB"/>
<stop offset="0.2" stop-color="#2274C7"/>
<stop offset="0.32" stop-color="#2275C8" stop-opacity="0.99"/>
<stop offset="0.37" stop-color="#227BCF" stop-opacity="0.93"/>
<stop offset="0.4" stop-color="#2285DA" stop-opacity="0.84"/>
<stop offset="0.42" stop-color="#2294EB" stop-opacity="0.7"/>
<stop offset="0.44" stop-color="#23A0F8" stop-opacity="0.6"/>
<stop offset="0.7" stop-color="#23A0F8"/>
<stop offset="0.87" stop-color="#34D6FC"/>
<stop offset="1" stop-color="#34D6FC" stop-opacity="0.5"/>
</linearGradient>
<linearGradient id="paint14_linear_1383_164" x1="120.272" y1="450.491" x2="780.711" y2="450.491" gradientUnits="userSpaceOnUse">
<stop stop-color="#1868AB"/>
<stop offset="0.2" stop-color="#2274C7"/>
<stop offset="0.32" stop-color="#2275C8" stop-opacity="0.99"/>
<stop offset="0.37" stop-color="#227BCF" stop-opacity="0.93"/>
<stop offset="0.4" stop-color="#2285DA" stop-opacity="0.84"/>
<stop offset="0.42" stop-color="#2294EB" stop-opacity="0.7"/>
<stop offset="0.44" stop-color="#23A0F8" stop-opacity="0.6"/>
<stop offset="0.7" stop-color="#23A0F8"/>
<stop offset="0.87" stop-color="#34D6FC"/>
<stop offset="1" stop-color="#34D6FC" stop-opacity="0.5"/>
</linearGradient>
<linearGradient id="paint15_linear_1383_164" x1="128.883" y1="450.504" x2="772.143" y2="450.504" gradientUnits="userSpaceOnUse">
<stop stop-color="#1868AB"/>
<stop offset="0.2" stop-color="#2274C7"/>
<stop offset="0.32" stop-color="#2275C8" stop-opacity="0.99"/>
<stop offset="0.37" stop-color="#227BCF" stop-opacity="0.93"/>
<stop offset="0.4" stop-color="#2285DA" stop-opacity="0.84"/>
<stop offset="0.42" stop-color="#2294EB" stop-opacity="0.7"/>
<stop offset="0.44" stop-color="#23A0F8" stop-opacity="0.6"/>
<stop offset="0.7" stop-color="#23A0F8"/>
<stop offset="0.87" stop-color="#34D6FC"/>
<stop offset="1" stop-color="#34D6FC" stop-opacity="0.5"/>
</linearGradient>
<linearGradient id="paint16_linear_1383_164" x1="137.473" y1="450.504" x2="763.533" y2="450.504" gradientUnits="userSpaceOnUse">
<stop stop-color="#1868AB"/>
<stop offset="0.2" stop-color="#2274C7"/>
<stop offset="0.32" stop-color="#2275C8" stop-opacity="0.99"/>
<stop offset="0.37" stop-color="#227BCF" stop-opacity="0.93"/>
<stop offset="0.4" stop-color="#2285DA" stop-opacity="0.84"/>
<stop offset="0.42" stop-color="#2294EB" stop-opacity="0.7"/>
<stop offset="0.44" stop-color="#23A0F8" stop-opacity="0.6"/>
<stop offset="0.7" stop-color="#23A0F8"/>
<stop offset="0.87" stop-color="#34D6FC"/>
<stop offset="1" stop-color="#34D6FC" stop-opacity="0.5"/>
</linearGradient>
<linearGradient id="paint17_linear_1383_164" x1="146.04" y1="450.513" x2="754.959" y2="450.513" gradientUnits="userSpaceOnUse">
<stop stop-color="#1868AB"/>
<stop offset="0.2" stop-color="#2274C7"/>
<stop offset="0.32" stop-color="#2275C8" stop-opacity="0.99"/>
<stop offset="0.37" stop-color="#227BCF" stop-opacity="0.93"/>
<stop offset="0.4" stop-color="#2285DA" stop-opacity="0.84"/>
<stop offset="0.42" stop-color="#2294EB" stop-opacity="0.7"/>
<stop offset="0.44" stop-color="#23A0F8" stop-opacity="0.6"/>
<stop offset="0.7" stop-color="#23A0F8"/>
<stop offset="0.87" stop-color="#34D6FC"/>
<stop offset="1" stop-color="#34D6FC" stop-opacity="0.5"/>
</linearGradient>
<linearGradient id="paint18_linear_1383_164" x1="154.635" y1="450.504" x2="746.371" y2="450.504" gradientUnits="userSpaceOnUse">
<stop stop-color="#1868AB"/>
<stop offset="0.2" stop-color="#2274C7"/>
<stop offset="0.32" stop-color="#2275C8" stop-opacity="0.99"/>
<stop offset="0.37" stop-color="#227BCF" stop-opacity="0.93"/>
<stop offset="0.4" stop-color="#2285DA" stop-opacity="0.84"/>
<stop offset="0.42" stop-color="#2294EB" stop-opacity="0.7"/>
<stop offset="0.44" stop-color="#23A0F8" stop-opacity="0.6"/>
<stop offset="0.7" stop-color="#23A0F8"/>
<stop offset="0.87" stop-color="#34D6FC"/>
<stop offset="1" stop-color="#34D6FC" stop-opacity="0.5"/>
</linearGradient>
<linearGradient id="paint19_linear_1383_164" x1="163.241" y1="450.504" x2="737.763" y2="450.504" gradientUnits="userSpaceOnUse">
<stop stop-color="#1868AB"/>
<stop offset="0.2" stop-color="#2274C7"/>
<stop offset="0.32" stop-color="#2275C8" stop-opacity="0.99"/>
<stop offset="0.37" stop-color="#227BCF" stop-opacity="0.93"/>
<stop offset="0.4" stop-color="#2285DA" stop-opacity="0.84"/>
<stop offset="0.42" stop-color="#2294EB" stop-opacity="0.7"/>
<stop offset="0.44" stop-color="#23A0F8" stop-opacity="0.6"/>
<stop offset="0.7" stop-color="#23A0F8"/>
<stop offset="0.87" stop-color="#34D6FC"/>
<stop offset="1" stop-color="#34D6FC" stop-opacity="0.5"/>
</linearGradient>
<linearGradient id="paint20_linear_1383_164" x1="171.814" y1="450.504" x2="729.174" y2="450.504" gradientUnits="userSpaceOnUse">
<stop stop-color="#1868AB"/>
<stop offset="0.2" stop-color="#2274C7"/>
<stop offset="0.32" stop-color="#2275C8" stop-opacity="0.99"/>
<stop offset="0.37" stop-color="#227BCF" stop-opacity="0.93"/>
<stop offset="0.4" stop-color="#2285DA" stop-opacity="0.84"/>
<stop offset="0.42" stop-color="#2294EB" stop-opacity="0.7"/>
<stop offset="0.44" stop-color="#23A0F8" stop-opacity="0.6"/>
<stop offset="0.7" stop-color="#23A0F8"/>
<stop offset="0.87" stop-color="#34D6FC"/>
<stop offset="1" stop-color="#34D6FC" stop-opacity="0.5"/>
</linearGradient>
<linearGradient id="paint21_linear_1383_164" x1="180.421" y1="450.504" x2="720.597" y2="450.504" gradientUnits="userSpaceOnUse">
<stop stop-color="#1868AB"/>
<stop offset="0.2" stop-color="#2274C7"/>
<stop offset="0.32" stop-color="#2275C8" stop-opacity="0.99"/>
<stop offset="0.37" stop-color="#227BCF" stop-opacity="0.93"/>
<stop offset="0.4" stop-color="#2285DA" stop-opacity="0.84"/>
<stop offset="0.42" stop-color="#2294EB" stop-opacity="0.7"/>
<stop offset="0.44" stop-color="#23A0F8" stop-opacity="0.6"/>
<stop offset="0.7" stop-color="#23A0F8"/>
<stop offset="0.87" stop-color="#34D6FC"/>
<stop offset="1" stop-color="#34D6FC" stop-opacity="0.5"/>
</linearGradient>
</defs>
</svg>
